<svg xmlns="http://www.w3.org/2000/svg" xmlns:xlink="http://www.w3.org/1999/xlink" width="40" zoomAndPan="magnify" viewBox="0 0 30 30.000001" height="40" preserveAspectRatio="xMidYMid meet" version="1.0"><defs><clipPath id="c36b97df77"><path d="M 2 0 L 28.464844 0 L 28.464844 27 L 2 27 Z M 2 0 " clip-rule="nonzero"/></clipPath><clipPath id="042faa51e1"><path d="M 8 22 L 28.464844 22 L 28.464844 29 L 8 29 Z M 8 22 " clip-rule="nonzero"/></clipPath></defs><g clip-path="url(#c36b97df77)"><path fill="#ea7700" d="M 16.242188 16.464844 C 16.332031 16.503906 16.398438 16.59375 16.398438 16.699219 C 16.398438 16.839844 16.285156 16.957031 16.140625 16.957031 C 16.050781 16.957031 15.972656 16.910156 15.925781 16.835938 C 15.871094 16.75 15.789062 16.699219 15.6875 16.683594 C 15.585938 16.671875 15.492188 16.703125 15.417969 16.773438 C 15.355469 16.828125 15.296875 16.898438 15.246094 16.972656 C 14.863281 17.527344 15.007812 18.285156 15.5625 18.667969 C 15.792969 18.828125 16.0625 18.898438 16.324219 18.878906 C 16.386719 18.878906 16.453125 18.875 16.515625 18.875 C 17.210938 18.878906 17.910156 19.085938 18.527344 19.507812 C 19.21875 19.984375 19.691406 20.65625 19.921875 21.398438 C 19.933594 21.429688 19.921875 21.460938 19.894531 21.476562 C 19.867188 21.492188 19.832031 21.488281 19.8125 21.464844 C 19.707031 21.351562 19.589844 21.246094 19.457031 21.15625 C 18.722656 20.65625 17.792969 20.671875 17.09375 21.132812 C 16.867188 21.277344 16.667969 21.472656 16.507812 21.703125 C 16.40625 21.847656 16.328125 22.003906 16.269531 22.160156 C 16.253906 22.207031 16.238281 22.253906 16.222656 22.300781 C 16.179688 22.425781 16.132812 22.546875 16.078125 22.671875 C 16.070312 22.691406 16.0625 22.710938 16.054688 22.730469 C 15.914062 23.042969 15.746094 23.34375 15.546875 23.632812 C 13.777344 26.207031 10.257812 26.859375 7.6875 25.09375 C 7.339844 24.855469 7.027344 24.585938 6.753906 24.292969 C 2.328125 19.609375 1.609375 12.316406 5.40625 6.789062 C 6.792969 4.765625 8.621094 3.222656 10.667969 2.203125 C 15.070312 0.00390625 20.5 0.199219 24.84375 3.179688 C 26.179688 4.097656 27.308594 5.210938 28.214844 6.449219 C 28.234375 6.476562 28.230469 6.515625 28.203125 6.539062 C 28.175781 6.5625 28.136719 6.5625 28.113281 6.535156 C 27.628906 6.027344 27.085938 5.5625 26.484375 5.148438 C 25.152344 4.234375 23.683594 3.675781 22.1875 3.453125 C 22.160156 3.449219 22.128906 3.464844 22.117188 3.492188 C 22.105469 3.519531 22.113281 3.550781 22.136719 3.570312 C 22.960938 4.28125 23.644531 5.105469 24.183594 6.003906 C 24.203125 6.03125 24.195312 6.070312 24.167969 6.089844 C 24.144531 6.113281 24.105469 6.109375 24.082031 6.082031 C 23.625 5.621094 23.121094 5.195312 22.566406 4.8125 C 20.695312 3.53125 18.550781 2.949219 16.441406 3.015625 C 16.414062 3.015625 16.386719 3.039062 16.378906 3.066406 C 16.371094 3.097656 16.386719 3.128906 16.414062 3.140625 C 16.867188 3.363281 17.3125 3.617188 17.742188 3.914062 C 18.246094 4.261719 18.710938 4.644531 19.132812 5.058594 C 19.15625 5.082031 19.15625 5.117188 19.136719 5.144531 C 19.121094 5.171875 19.085938 5.179688 19.054688 5.164062 C 14.582031 3.015625 9.085938 4.390625 6.1875 8.605469 C 3.417969 12.664062 3.9375 18 7.167969 21.433594 C 7.175781 21.4375 7.183594 21.4375 7.191406 21.445312 C 7.402344 21.652344 7.636719 21.847656 7.890625 22.019531 C 9.320312 23.003906 11.070312 23.171875 12.589844 22.628906 C 13.089844 22.449219 13.566406 22.191406 13.996094 21.859375 C 14.417969 21.535156 14.796875 21.144531 15.113281 20.679688 C 15.273438 20.445312 15.414062 20.199219 15.535156 19.949219 C 15.675781 19.648438 15.574219 19.289062 15.289062 19.109375 C 15.273438 19.101562 15.257812 19.09375 15.246094 19.082031 C 14.585938 18.628906 14.417969 17.726562 14.871094 17.070312 C 15.089844 16.75 15.417969 16.546875 15.769531 16.472656 C 15.867188 16.453125 16.132812 16.417969 16.242188 16.464844 Z M 16.242188 16.464844 " fill-opacity="1" fill-rule="evenodd"/></g><path fill="#ea7700" d="M 12.804688 17.441406 C 10.808594 14.394531 10.542969 10.417969 12.292969 7.078125 C 12.308594 7.050781 12.304688 7.019531 12.28125 7 C 12.257812 6.976562 12.226562 6.976562 12.199219 6.996094 C 11.4375 7.519531 10.757812 8.1875 10.203125 8.996094 C 8.949219 10.824219 8.582031 12.996094 9.011719 15.003906 C 9.019531 15.039062 9 15.074219 8.964844 15.082031 C 8.933594 15.089844 8.898438 15.074219 8.886719 15.042969 C 8.222656 13.386719 8.136719 11.527344 8.691406 9.789062 C 8.703125 9.757812 8.6875 9.722656 8.660156 9.710938 C 8.628906 9.695312 8.59375 9.703125 8.574219 9.730469 C 8.5625 9.746094 8.554688 9.761719 8.542969 9.777344 C 6.769531 12.359375 6.773438 15.644531 8.292969 18.164062 C 8.308594 18.191406 8.304688 18.230469 8.277344 18.25 C 8.253906 18.273438 8.214844 18.269531 8.191406 18.25 C 7.484375 17.597656 6.996094 16.777344 6.738281 15.894531 C 6.734375 15.867188 6.710938 15.847656 6.679688 15.847656 C 6.652344 15.847656 6.625 15.863281 6.613281 15.890625 C 5.828125 17.804688 6.261719 20.027344 7.722656 21.507812 C 7.722656 21.507812 7.722656 21.507812 7.726562 21.507812 C 7.792969 21.578125 7.859375 21.640625 7.929688 21.707031 C 8.007812 21.773438 8.085938 21.835938 8.167969 21.898438 C 8.191406 21.914062 8.210938 21.929688 8.234375 21.945312 C 9.722656 22.964844 11.753906 22.585938 12.773438 21.101562 C 13.554688 19.964844 13.519531 18.519531 12.804688 17.441406 Z M 12.804688 17.441406 " fill-opacity="1" fill-rule="evenodd"/><g clip-path="url(#042faa51e1)"><path fill="#ea7700" d="M 15.695312 24.609375 C 13.835938 26.207031 11.277344 26.738281 8.949219 26.027344 C 8.917969 26.019531 8.882812 26.035156 8.871094 26.0625 C 8.855469 26.09375 8.863281 26.128906 8.890625 26.148438 C 8.929688 26.175781 8.96875 26.203125 9.007812 26.230469 C 12.023438 28.300781 15.566406 29.027344 18.925781 28.542969 C 18.957031 28.535156 18.980469 28.511719 18.980469 28.476562 C 18.980469 28.445312 18.957031 28.417969 18.925781 28.410156 C 18.136719 28.25 17.363281 27.929688 16.660156 27.445312 C 16.65625 27.445312 16.65625 27.445312 16.65625 27.445312 C 16.625 27.425781 16.617188 27.390625 16.632812 27.359375 C 16.648438 27.328125 16.683594 27.316406 16.714844 27.328125 C 18.425781 27.945312 20.25 28.050781 21.972656 27.683594 C 22.003906 27.675781 22.027344 27.652344 22.027344 27.617188 C 22.027344 27.585938 22.003906 27.558594 21.972656 27.554688 C 21.269531 27.433594 20.578125 27.210938 19.917969 26.882812 C 19.890625 26.871094 19.875 26.839844 19.882812 26.808594 C 19.890625 26.777344 19.917969 26.757812 19.949219 26.757812 C 23.152344 26.945312 26.375 25.523438 28.367188 22.730469 C 28.382812 22.703125 28.382812 22.667969 28.359375 22.644531 C 28.335938 22.621094 28.296875 22.617188 28.273438 22.640625 C 25.425781 24.820312 21.589844 25.367188 18.226562 24.015625 C 17.4375 23.667969 16.511719 23.832031 15.898438 24.429688 C 15.839844 24.480469 15.789062 24.542969 15.738281 24.601562 C 15.722656 24.605469 15.707031 24.609375 15.695312 24.609375 Z M 15.695312 24.609375 " fill-opacity="1" fill-rule="evenodd"/></g></svg>