<?xml version="1.0" encoding="UTF-8" standalone="no"?>
<svg
   width="20"
   zoomAndPan="magnify"
   viewBox="0 0 15 15.000001"
   height="20"
   preserveAspectRatio="xMidYMid"
   version="1.0"
   id="svg5"
   xmlns="http://www.w3.org/2000/svg"
   xmlns:svg="http://www.w3.org/2000/svg">
  <defs
     id="defs2">
    <clipPath
       id="c36b97df77">
      <path
         d="M 2,0 H 28.464844 V 27 H 2 Z m 0,0"
         clip-rule="nonzero"
         id="path1" />
    </clipPath>
    <clipPath
       id="042faa51e1">
      <path
         d="m 8,22 h 20.464844 v 7 H 8 Z m 0,0"
         clip-rule="nonzero"
         id="path2" />
    </clipPath>
  </defs>
  <g
     id="g6"
     transform="matrix(0.53642037,0,0,0.53642037,-0.90191884,-0.3884201)">
    <g
       clip-path="url(#c36b97df77)"
       id="g3">
      <path
         fill="#ea7700"
         d="m 16.242188,16.464844 c 0.08984,0.03906 0.15625,0.128906 0.15625,0.234375 0,0.140625 -0.113282,0.257812 -0.257813,0.257812 -0.08984,0 -0.167969,-0.04687 -0.214844,-0.121093 -0.05469,-0.08594 -0.136719,-0.136719 -0.238281,-0.152344 -0.101562,-0.01172 -0.195312,0.01953 -0.269531,0.08984 -0.0625,0.05469 -0.121094,0.125 -0.171875,0.199218 -0.382813,0.554688 -0.238282,1.3125 0.316406,1.695313 0.230469,0.160156 0.5,0.230469 0.761719,0.210937 0.0625,0 0.128906,-0.0039 0.191406,-0.0039 0.695313,0.0039 1.394531,0.210938 2.011719,0.632812 0.691406,0.476563 1.164062,1.148438 1.394531,1.890626 0.01172,0.03125 0,0.0625 -0.02734,0.07812 -0.02734,0.01563 -0.0625,0.01172 -0.08203,-0.01172 -0.105469,-0.113282 -0.222656,-0.21875 -0.355469,-0.308594 -0.734375,-0.5 -1.664062,-0.484375 -2.363281,-0.02344 -0.226562,0.144532 -0.425781,0.339844 -0.585938,0.570313 -0.101562,0.144531 -0.179687,0.300781 -0.238281,0.457031 -0.01563,0.04687 -0.03125,0.09375 -0.04687,0.140625 -0.04297,0.125 -0.08984,0.246094 -0.144531,0.371094 -0.0078,0.01953 -0.01563,0.03906 -0.02344,0.05859 -0.140626,0.3125 -0.308594,0.613281 -0.507813,0.902343 C 13.777344,26.207031 10.257812,26.859375 7.6875,25.09375 7.339844,24.855469 7.027344,24.585938 6.753906,24.292969 2.328125,19.609375 1.609375,12.316406 5.40625,6.789062 6.792969,4.765625 8.621094,3.222656 10.667969,2.203125 15.070312,0.00390625 20.5,0.199219 24.84375,3.179688 c 1.335938,0.917968 2.464844,2.03125 3.371094,3.269531 0.01953,0.027343 0.01563,0.066406 -0.01172,0.089843 C 28.175781,6.5625 28.136719,6.5625 28.113281,6.535156 27.628906,6.027344 27.085938,5.5625 26.484375,5.148438 25.152344,4.234375 23.683594,3.675781 22.1875,3.453125 c -0.02734,-0.00391 -0.05859,0.011719 -0.07031,0.039063 -0.01172,0.027343 -0.0039,0.058593 0.01953,0.078124 0.824219,0.710938 1.507812,1.535157 2.046875,2.433594 0.01953,0.027344 0.01172,0.066406 -0.01563,0.085938 -0.02344,0.023437 -0.0625,0.019531 -0.08594,-0.00781 C 23.625,5.621094 23.121094,5.195312 22.566406,4.8125 c -1.871094,-1.28125 -4.015625,-1.863281 -6.125,-1.796875 -0.02734,0 -0.05469,0.023437 -0.0625,0.050781 -0.0078,0.03125 0.0078,0.0625 0.03516,0.074219 0.453126,0.222656 0.898438,0.476563 1.328126,0.773437 0.503906,0.347657 0.96875,0.730469 1.390624,1.144532 0.02344,0.023437 0.02344,0.058594 0.0039,0.085937 -0.01563,0.027344 -0.05078,0.035157 -0.08203,0.019531 C 14.582031,3.015625 9.085938,4.390625 6.1875,8.605469 3.417969,12.664062 3.9375,18 7.167969,21.433594 c 0.00781,0.0039 0.015625,0.0039 0.023437,0.01172 0.210938,0.207032 0.445313,0.402344 0.699219,0.574219 1.429687,0.984375 3.179687,1.152344 4.699219,0.609375 0.5,-0.179687 0.976562,-0.4375 1.40625,-0.769531 0.421875,-0.324219 0.800781,-0.714844 1.117187,-1.179687 0.160157,-0.234376 0.300781,-0.480469 0.421875,-0.730469 0.140625,-0.300781 0.03906,-0.660157 -0.246094,-0.839844 -0.01562,-0.0078 -0.03125,-0.01563 -0.04297,-0.02734 -0.660156,-0.453125 -0.828125,-1.355469 -0.375,-2.011719 0.21875,-0.320312 0.546875,-0.523437 0.898437,-0.597656 0.09766,-0.01953 0.363281,-0.05469 0.472657,-0.0078 z m 0,0"
         fill-opacity="1"
         fill-rule="evenodd"
         id="path3" />
    </g>
    <path
       fill="#ea7700"
       d="M 12.804688,17.441406 C 10.808594,14.394531 10.542969,10.417969 12.292969,7.078125 12.308594,7.050781 12.304688,7.019531 12.28125,7 12.25781,6.976562 12.22656,6.976562 12.19922,6.99609 c -0.761719,0.523437 -1.441407,1.191406 -1.996094,2 -1.253906,1.828125 -1.621094,4 -1.191406,6.007812 0.00781,0.03516 -0.011719,0.07031 -0.046875,0.07813 -0.03125,0.0078 -0.066406,-0.0078 -0.078125,-0.03906 C 8.222657,13.386722 8.13672,11.527347 8.691407,9.789065 8.703125,9.757812 8.6875,9.722656 8.660156,9.710938 8.628906,9.695312 8.59375,9.703125 8.574219,9.730469 8.5625,9.746094 8.554688,9.761719 8.542969,9.777344 c -1.773438,2.582031 -1.769531,5.867187 -0.25,8.386718 0.015625,0.02734 0.011719,0.06641 -0.015625,0.08594 -0.023438,0.02344 -0.0625,0.01953 -0.085938,0 -0.707031,-0.652344 -1.195312,-1.472656 -1.453125,-2.355469 -0.00391,-0.02734 -0.027343,-0.04687 -0.058593,-0.04687 -0.027344,0 -0.054688,0.01563 -0.066407,0.04297 -0.785156,1.914063 -0.351562,4.136719 1.109375,5.617187 0,0 0,0 0.00391,0 0.066407,0.07031 0.132813,0.132813 0.203126,0.199219 0.078124,0.06641 0.15625,0.128907 0.238281,0.191407 0.023437,0.01562 0.042969,0.03125 0.066406,0.04687 1.488281,1.019532 3.519531,0.640626 4.539063,-0.84375 0.78125,-1.136718 0.746093,-2.582031 0.03125,-3.660156 z m 0,0"
       fill-opacity="1"
       fill-rule="evenodd"
       id="path4" />
    <g
       clip-path="url(#042faa51e1)"
       id="g5">
      <path
         fill="#ea7700"
         d="m 15.695312,24.609375 c -1.859374,1.597656 -4.417968,2.128906 -6.746093,1.417969 -0.03125,-0.0078 -0.066407,0.0078 -0.078125,0.03516 -0.015625,0.03125 -0.00781,0.06641 0.019531,0.08594 0.039063,0.02734 0.078125,0.05469 0.117187,0.08203 3.015626,2.070312 6.558594,2.796875 9.917969,2.3125 0.03125,-0.0078 0.05469,-0.03125 0.05469,-0.06641 0,-0.03125 -0.02344,-0.05859 -0.05469,-0.06641 -0.789062,-0.160156 -1.5625,-0.480468 -2.265625,-0.964844 -0.0039,0 -0.0039,0 -0.0039,0 -0.03125,-0.01953 -0.03906,-0.05469 -0.02344,-0.08594 0.01563,-0.03125 0.05078,-0.04297 0.08203,-0.03125 1.710937,0.617187 3.535156,0.722656 5.257812,0.355469 0.03125,-0.0078 0.05469,-0.03125 0.05469,-0.06641 0,-0.03125 -0.02344,-0.05859 -0.05469,-0.0625 -0.703125,-0.121094 -1.394531,-0.34375 -2.054687,-0.671876 -0.02734,-0.01172 -0.04297,-0.04297 -0.03516,-0.07422 0.0078,-0.03125 0.03516,-0.05078 0.06641,-0.05078 3.203125,0.1875 6.425781,-1.234374 8.417969,-4.027343 0.01562,-0.02734 0.01562,-0.0625 -0.0078,-0.08594 -0.02344,-0.02344 -0.0625,-0.02734 -0.08594,-0.0039 -2.847657,2.179687 -6.683594,2.726563 -10.046876,1.375 -0.789062,-0.347656 -1.714843,-0.183594 -2.328124,0.414063 -0.05859,0.05078 -0.109376,0.113281 -0.160157,0.171874 -0.01563,0.0039 -0.03125,0.0078 -0.04297,0.0078 z m 0,0"
         fill-opacity="1"
         fill-rule="evenodd"
         id="path5" />
    </g>
  </g>
</svg>
